PathFileType	4	(X/Y/Z)	D:\TRACE\v60_Jaco2_6-2-23\JustBodyDRS_Motion1_5-platform.trc
DataRate	CameraRate	NumFrames	NumMarkers	Units	OrigDataRate	OrigDataStartFrame	OrigNumFrames
100.00	100.00	      67	5	mm	100.00	5027	      6702
Frame#	Time	Left_Front			Right_Front			Left_Aft			Right_Aft			Post			
		X1	Y1	Z1	X2	Y2	Z2	X3	Y3	Z3	X4	Y4	Z4	X5	Y5	Z5	

5027	50.260	-752.14795	30.38072	-633.72021	817.74127	31.92751	-639.12073	-660.49402	-7.67750	500.73502	781.37585	-8.97726	510.81812	33.92734	1339.43384	-913.65985	
5028	50.270	-752.58209	30.15678	-633.76813	817.27667	31.72213	-639.17035	-660.88257	-7.23203	500.64645	781.17969	-8.64885	510.66336	33.77616	1339.13538	-914.54584	
5029	50.280	-752.97418	29.84961	-633.82849	816.90723	31.29998	-639.25250	-661.53247	-6.63611	500.39883	780.70093	-8.28435	510.59198	33.15308	1338.72278	-915.65717	
5030	50.290	-753.45099	29.33355	-633.88690	816.51172	30.76164	-639.45496	-661.42181	-7.20417	500.52145	780.60211	-8.08558	510.55170	32.88418	1338.13501	-916.32227	
5031	50.300	-753.86542	29.00334	-633.98401	816.07648	30.31589	-639.63507	-661.61163	-7.06972	500.50293	780.53143	-7.68995	510.49442	32.55861	1337.42566	-917.20325	
5032	50.310	-754.16693	28.71205	-634.23700	815.83978	30.04008	-639.53351	-661.88995	-6.80454	500.52777	780.07385	-7.35198	510.43082	32.23671	1336.93054	-918.01917	
5033	50.320	-754.61755	28.40528	-634.39307	815.47394	29.78241	-639.50952	-662.75226	-5.69507	500.02509	779.71906	-7.10954	510.40793	31.70579	1336.49780	-918.40247	
5034	50.330	-755.10016	28.04701	-634.44592	815.12500	29.41526	-639.52405	-662.98114	-5.62525	500.04089	778.88885	-6.93088	509.89603	31.18320	1336.05249	-919.21063	
5035	50.340	-755.45569	27.52835	-634.56366	814.42303	28.89760	-639.96533	-663.30835	-5.62591	500.08951	778.73352	-6.41791	510.07367	30.75268	1335.25671	-920.18793	
5036	50.350	-755.76715	26.85435	-634.76971	814.02008	28.57338	-640.09363	-663.73627	-5.29962	499.91977	778.16571	-6.40021	509.81763	30.50373	1334.53784	-921.28510	
5037	50.360	-755.87469	26.31228	-634.63641	813.45911	28.08638	-640.17810	-664.37756	-4.92388	499.87521	777.63306	-6.07259	509.78058	29.93451	1334.01807	-921.95856	
5038	50.370	-756.63739	25.89859	-634.76038	813.12256	27.60594	-640.21368	-664.77136	-4.69460	499.84387	776.94427	-5.77606	509.87958	29.43459	1333.34546	-923.46429	
5039	50.380	-757.14935	25.77731	-634.83405	812.68445	27.12039	-640.28174	-665.06165	-4.53882	499.69626	776.60059	-5.52217	509.79416	28.98150	1332.81946	-924.33704	
5040	50.390	-757.79517	25.47439	-634.83698	812.26678	26.75286	-640.39587	-665.31799	-4.19213	499.63245	776.00262	-5.02615	509.61673	28.16786	1332.56372	-925.58624	
5041	50.400	-758.34924	24.96842	-635.11810	811.81757	26.39895	-640.52081	-665.92578	-4.01108	499.52786	775.62250	-4.78891	509.44577	28.32096	1331.61597	-926.48529	
5042	50.410	-758.86053	24.44415	-635.40802	811.17175	26.16117	-640.55627	-666.73602	-3.57231	499.41806	775.24719	-4.63315	509.35345	27.45591	1331.00525	-927.59601	
5043	50.420	-759.33954	24.18645	-635.50275	810.36969	25.45175	-640.79028	-667.12146	-3.24591	499.31461	774.82727	-4.23565	509.32520	26.95971	1330.43652	-928.00238	
5044	50.430	-759.72644	23.87481	-635.71283	810.07239	25.08805	-640.79272	-667.89685	-2.66590	499.32477	774.24774	-3.90325	509.29346	26.55084	1329.65027	-928.98474	
5045	50.440	-760.25287	23.25981	-635.59607	809.45453	24.65903	-641.08923	-668.01154	-2.77853	499.23575	773.22528	-3.80983	508.79330	26.08002	1329.37708	-929.90259	
5046	50.450	-760.81586	22.72649	-635.71411	809.15814	24.39320	-641.11121	-668.53510	-2.59921	499.16528	772.79224	-3.14871	509.15436	25.17617	1328.66309	-930.57098	
5047	50.460	-761.29004	22.17725	-635.78125	808.53882	23.67780	-641.28192	-669.24200	-2.21709	498.92749	772.54364	-2.97510	508.97919	24.48970	1327.77515	-931.54211	
5048	50.470	-762.19208	21.51095	-635.64380	807.81165	23.11421	-641.25659	-670.21942	-1.36013	498.88202	772.06305	-2.61237	508.78967	23.96274	1327.26245	-932.35071	
5049	50.480	-762.74884	21.20773	-636.10498	807.09918	22.78335	-641.43335	-670.78601	-1.10093	498.86572	770.58429	-2.31535	508.49466	23.48523	1326.67688	-933.65619	
5050	50.490	-763.31982	21.09074	-636.42987	806.57867	22.48473	-641.40179	-671.37109	-0.84412	498.82904	770.58734	-2.02422	508.45886	22.83907	1325.77148	-934.87134	
5051	50.500	-763.69714	20.72545	-636.10828	806.03302	22.17261	-641.53314	-672.18188	-0.59410	498.63678	770.09985	-1.46535	508.30203	22.61538	1325.33069	-936.40662	
5052	50.510	-764.50873	20.33302	-636.32739	805.34308	21.66607	-641.84161	-672.24127	-0.64223	498.33652	769.83484	-1.13921	508.21393	21.89762	1324.69690	-937.52496	
5053	50.520	-765.10980	19.58837	-636.71692	804.76569	20.87626	-641.84113	-673.36188	0.19834	498.33264	769.30188	-0.73609	508.13058	20.86707	1323.99292	-938.84625	
5054	50.530	-765.91632	18.69894	-636.53345	803.97986	20.21065	-641.91388	-674.09033	0.42907	498.31424	768.26917	-0.39840	508.13171	20.27084	1323.33276	-939.70490	
5055	50.540	-766.75323	18.28941	-636.56946	803.18115	19.76084	-642.08020	-674.66254	0.54689	498.32761	767.59906	-0.23543	508.19458	19.56058	1322.74207	-940.36975	
5056	50.550	-767.33282	18.30812	-636.95636	802.66364	19.39112	-642.20233	-675.51819	1.04986	498.02466	766.78625	0.24569	508.13922	18.77681	1321.85303	-941.13525	
5057	50.560	-767.92639	18.08477	-636.95465	802.09491	19.12300	-642.34479	-676.73242	2.30226	497.09958	766.23236	0.50973	507.89334	18.36851	1321.28516	-941.76898	
5058	50.570	-768.60321	17.28017	-637.00861	801.23724	18.80996	-642.58521	-676.89270	1.74140	497.35968	765.62048	0.99532	507.72928	17.50748	1320.80493	-942.80804	
5059	50.580	-769.14789	16.72762	-637.25256	800.40436	18.12223	-642.79053	-677.62616	1.84695	497.67288	765.10779	1.38171	507.57162	16.96074	1319.76306	-943.56152	
5060	50.590	-770.24707	16.19876	-637.33868	799.80670	17.53299	-642.61255	-678.03998	1.97295	497.74802	764.07288	1.60862	507.39081	15.89610	1319.29968	-944.50427	
5061	50.600	-771.15021	15.99771	-637.62598	798.88971	17.14941	-642.81342	-678.81781	2.38175	497.65448	762.75928	1.87086	507.46078	15.50317	1318.32007	-945.68939	
5062	50.610	-771.64655	15.83919	-637.70898	798.29034	16.63172	-643.04755	-679.65820	2.65776	497.50632	762.58099	2.18202	507.29752	14.43260	1317.81372	-947.34149	
5063	50.620	-772.30322	14.99968	-637.53259	797.39984	16.22692	-643.23969	-680.81073	3.49255	497.39099	761.74579	2.73796	507.21188	13.99229	1317.29639	-948.34106	
5064	50.630	-772.99756	14.18288	-637.71698	796.85577	15.76736	-643.04346	-681.09747	3.75092	497.40210	761.18896	3.07196	507.10080	13.29763	1316.43896	-949.94635	
5065	50.640	-773.82233	13.80522	-637.81927	796.10675	15.22221	-643.19611	-681.88092	3.89943	497.27509	760.39911	3.39535	507.03760	12.35587	1315.80762	-951.29297	
5066	50.650	-774.81012	13.23474	-637.98560	795.28491	14.63943	-643.38391	-682.91388	4.24091	497.12219	759.34674	3.55097	507.12704	11.53877	1315.04517	-952.04907	
5067	50.660	-775.52393	13.18923	-638.20154	794.40411	14.25210	-643.56476	-683.83960	4.77049	496.86658	758.09106	3.89067	507.05890	10.52397	1314.37695	-953.42047	
5068	50.670	-776.17920	12.70203	-638.10632	793.68231	13.90046	-643.45062	-684.45996	5.02026	496.78168	757.70300	4.24732	506.84326	9.91597	1313.74475	-954.14441	
5069	50.680	-776.96356	12.14670	-638.33698	792.83630	13.41896	-643.57367	-685.22662	5.27648	496.78903	757.11200	4.78058	506.63626	8.92842	1312.82959	-955.10608	
5070	50.690	-777.82996	11.64618	-638.19458	791.93677	12.89236	-643.80109	-686.11609	5.63875	496.64264	756.13971	5.06492	506.38052	8.07978	1312.33240	-955.46106	
5071	50.700	-779.03998	10.86644	-638.57599	791.13550	12.39699	-643.89490	-686.97839	6.14822	496.32745	755.32806	5.43450	506.36304	7.09242	1311.55591	-956.30792	
5072	50.710	-779.75952	10.56039	-638.85010	790.28131	11.73846	-643.96759	-687.83368	6.15246	496.26123	754.44940	5.63675	506.40799	6.39981	1310.76514	-957.06085	
5073	50.720	-780.21594	10.04294	-638.56042	789.41644	11.30770	-644.11115	-688.75360	6.43978	496.19241	753.53894	6.07131	506.30334	5.91728	1310.10059	-958.16156	
5074	50.730	-781.18060	9.57120	-638.78467	788.56396	10.98982	-644.20184	-689.25562	6.71136	496.16196	752.77319	6.42255	506.17407	5.20159	1309.25720	-959.31830	
5075	50.740	-782.31732	9.23487	-638.82196	787.68091	10.45947	-644.27283	-690.10852	7.28689	496.14044	752.06812	6.84385	506.04309	3.58762	1308.72058	-960.67914	
5076	50.750	-783.22729	8.71291	-639.19617	786.86597	10.02227	-644.48627	-691.18872	7.55467	495.95837	751.11096	7.09927	505.82660	2.86688	1308.23596	-962.17316	
5077	50.760	-784.01654	8.32304	-639.40491	785.95435	9.56784	-644.75842	-692.53387	8.54045	495.32028	750.08234	7.49912	505.88983	2.00377	1307.44495	-963.27728	
5078	50.770	-784.55615	7.92132	-639.50104	785.19385	8.98260	-644.50079	-693.20343	8.29358	496.00629	749.13794	7.80831	505.83188	1.49435	1306.56909	-964.59967	
5079	50.780	-785.76929	7.29614	-639.30139	784.06512	8.39807	-644.75848	-694.18457	8.61974	495.82031	748.20966	8.07970	505.61551	0.49918	1305.87585	-965.75946	
5080	50.790	-786.68970	7.07374	-639.35583	783.19080	8.14023	-644.86273	-695.03021	9.11131	495.66315	747.54553	8.48135	505.48709	-0.79974	1305.29114	-966.60870	
5081	50.800	-787.73511	6.36638	-639.63373	782.33057	7.75864	-644.82977	-695.68677	9.39509	495.61752	746.93164	8.75201	505.30856	-1.78776	1304.85730	-967.55695	
5082	50.810	-788.34845	5.83176	-639.81317	781.40588	7.33696	-645.01758	-696.73798	9.55359	495.49149	745.31360	9.20768	505.35895	-2.51791	1304.02991	-968.02008	
5083	50.820	-789.01617	5.26563	-639.40796	780.45862	6.68001	-645.22839	-697.46960	9.78381	495.39957	744.82764	9.39266	505.29852	-3.42625	1303.29785	-968.59729	
5084	50.830	-790.46594	4.92243	-639.82288	779.58862	6.33084	-645.20667	-698.53381	10.15722	495.19250	743.71021	9.82423	505.15051	-4.51486	1302.69385	-969.38654	
5085	50.840	-791.31281	4.60735	-640.12067	778.54260	5.92327	-645.26312	-699.53363	10.51886	495.09747	742.99591	10.04891	504.99948	-5.37536	1301.88843	-970.19690	
5086	50.850	-792.29297	4.30454	-640.22430	777.57135	5.43057	-645.59967	-700.25995	10.79089	495.07980	742.21375	10.47717	504.85336	-6.09715	1301.38721	-971.20917	
5087	50.860	-792.95868	3.75414	-640.20648	776.64453	5.08846	-645.73828	-701.07263	10.99349	495.04340	740.81836	10.68197	504.79791	-7.10545	1300.70557	-972.09393	
5088	50.870	-794.14484	3.25864	-640.06433	775.68219	4.82465	-645.70221	-702.31354	11.47943	494.98917	739.89105	11.04411	504.67807	-8.16965	1299.83057	-973.17426	
5089	50.880	-795.23932	2.67180	-640.28210	774.72583	4.40647	-645.85278	-703.33350	11.80625	494.82251	739.16901	11.24910	504.50925	-8.91334	1299.26624	-974.71381	
5090	50.890	-795.92438	2.52867	-640.76190	773.92188	3.82367	-645.94812	-704.15637	12.01710	494.74054	738.16541	11.59212	504.39517	-9.98505	1298.34949	-975.87036	
5091	50.900	-796.84705	1.52847	-640.65137	773.09473	3.06755	-645.96350	-705.17236	12.30106	494.72913	737.33618	11.91041	504.47879	-10.63954	1297.90918	-976.93042	
5092	50.910	-797.96735	1.17833	-640.57373	772.01874	2.56529	-645.83374	-705.99146	12.65243	494.45648	736.28473	12.45365	504.29553	-12.16988	1297.23206	-978.19623	
5093	50.920	-798.94550	0.62095	-640.67871	771.01459	2.29185	-646.21680	-707.01831	13.11415	494.38547	735.45691	12.54800	504.09564	-12.60329	1296.41748	-979.11206	
